<svg xmlns="http://www.w3.org/2000/svg" xmlns:xlink="http://www.w3.org/1999/xlink" width="200" zoomAndPan="magnify" viewBox="0 0 150 74.999997" height="100" preserveAspectRatio="xMidYMid meet" version="1.0"><defs><g/><clipPath id="f2022570ab"><path d="M 14 24.164062 L 21 24.164062 L 21 32 L 14 32 Z M 14 24.164062 " clip-rule="nonzero"/></clipPath><clipPath id="23353f5362"><path d="M 21 28 L 25.832031 28 L 25.832031 33 L 21 33 Z M 21 28 " clip-rule="nonzero"/></clipPath></defs><path fill="#0d6efd" d="M 4.976562 40.210938 C 4.859375 39.707031 4.789062 39.191406 4.789062 38.671875 C 4.789062 38.554688 4.796875 38.441406 4.800781 38.324219 C 4.828125 37.839844 4.917969 37.355469 5.066406 36.890625 C 5.339844 36.054688 5.84375 35.320312 6.617188 34.882812 C 7.46875 34.398438 8.460938 34.382812 9.390625 34.648438 C 10.792969 35.054688 12.015625 36.070312 12.949219 37.164062 L 13.859375 38.234375 L 14.773438 37.164062 C 15.707031 36.070312 16.925781 35.054688 18.332031 34.648438 C 19.261719 34.382812 20.25 34.398438 21.105469 34.882812 C 21.878906 35.320312 22.382812 36.054688 22.65625 36.890625 C 22.804688 37.355469 22.894531 37.835938 22.921875 38.324219 C 23.007812 39.871094 22.492188 41.402344 21.738281 42.734375 C 20.859375 44.296875 19.613281 45.699219 18.246094 46.847656 C 17.667969 47.339844 17.042969 47.800781 16.394531 48.21875 C 15.332031 48.902344 13.492188 49.90625 13.976562 48.410156 C 14.28125 47.796875 14.449219 47.195312 14.472656 46.59375 C 12.992188 46.042969 12.242188 45.222656 12.21875 44.140625 C 12.335938 45.027344 12.992188 45.699219 14.179688 46.15625 C 15.300781 46.484375 15.707031 46.214844 15.402344 45.351562 C 15.066406 44.480469 14.925781 43.769531 14.976562 43.199219 C 15.023438 43.515625 15.15625 44.003906 15.371094 44.664062 L 17.242188 42.835938 C 17.894531 42.28125 18.125 41.46875 17.933594 40.394531 C 17.832031 39.75 17.574219 39.5 17.171875 39.652344 C 15.984375 40.292969 15.171875 40.5 14.742188 40.269531 C 14.351562 39.960938 13.703125 40.003906 12.789062 40.40625 C 11.914062 40.824219 11.398438 41.386719 11.234375 42.074219 C 10.65625 44.011719 9.75 45.308594 8.511719 45.953125 C 8.121094 46.15625 7.695312 46.300781 7.242188 46.375 C 9.113281 48.339844 11.496094 49.945312 13.867188 50.824219 C 19.703125 48.65625 25.613281 42.121094 23.800781 36.515625 C 22.554688 32.648438 17.777344 31.792969 13.867188 36.375 C 9.953125 31.792969 5.183594 32.648438 3.929688 36.515625 C 3.613281 37.496094 3.53125 38.5 3.648438 39.515625 C 3.648438 39.53125 3.65625 39.546875 3.65625 39.5625 C 3.660156 39.601562 3.664062 39.636719 3.671875 39.675781 C 3.671875 39.695312 3.675781 39.710938 3.675781 39.734375 C 3.679688 39.765625 3.6875 39.800781 3.691406 39.835938 C 3.691406 39.851562 3.695312 39.867188 3.695312 39.882812 C 3.703125 39.929688 3.714844 39.972656 3.71875 40.019531 L 3.71875 40.027344 C 3.730469 40.074219 3.734375 40.121094 3.746094 40.175781 L 3.75 40.191406 C 3.761719 40.238281 3.773438 40.292969 3.78125 40.339844 L 3.78125 40.347656 C 3.792969 40.390625 3.804688 40.429688 3.808594 40.472656 C 3.8125 40.496094 3.820312 40.515625 3.824219 40.53125 C 3.824219 40.542969 3.832031 40.546875 3.832031 40.558594 C 4.285156 42.425781 5.371094 44.09375 6.921875 45.265625 C 5.945312 43.71875 5.289062 42.003906 4.976562 40.210938 Z M 4.976562 40.210938 " fill-opacity="1" fill-rule="evenodd"/><path fill="#0d6efd" d="M 5.507812 30.054688 C 4.949219 28.902344 3.804688 28.304688 2.945312 28.722656 C 2.09375 29.136719 1.851562 30.40625 2.414062 31.558594 C 2.972656 32.707031 4.117188 33.304688 4.976562 32.890625 C 5.828125 32.472656 6.070312 31.207031 5.507812 30.054688 Z M 5.507812 30.054688 " fill-opacity="1" fill-rule="evenodd"/><path fill="#0d6efd" d="M 12.234375 28.1875 C 12.214844 26.433594 11.136719 25.023438 9.828125 25.039062 C 8.515625 25.054688 7.46875 26.488281 7.488281 28.242188 C 7.507812 29.996094 8.585938 31.40625 9.894531 31.390625 C 11.207031 31.375 12.25 29.941406 12.234375 28.1875 Z M 12.234375 28.1875 " fill-opacity="1" fill-rule="evenodd"/><g clip-path="url(#f2022570ab)"><path fill="#0d6efd" d="M 20.085938 27.757812 C 20.066406 25.761719 18.839844 24.164062 17.351562 24.179688 C 15.863281 24.195312 14.675781 25.828125 14.699219 27.816406 C 14.71875 29.808594 15.945312 31.40625 17.433594 31.390625 C 18.917969 31.375 20.109375 29.75 20.085938 27.757812 Z M 20.085938 27.757812 " fill-opacity="1" fill-rule="evenodd"/></g><g clip-path="url(#23353f5362)"><path fill="#0d6efd" d="M 21.882812 29.671875 C 22.441406 28.519531 23.589844 27.921875 24.445312 28.335938 C 25.300781 28.753906 25.539062 30.023438 24.980469 31.171875 C 24.417969 32.324219 23.273438 32.921875 22.414062 32.503906 C 21.5625 32.089844 21.324219 30.820312 21.882812 29.671875 Z M 21.882812 29.671875 " fill-opacity="1" fill-rule="evenodd"/></g><g fill="#0d6efd" fill-opacity="1"><g transform="translate(28.676194, 40.295123)"><g><path d="M 4.296875 0 L 2.3125 0 L 0.25 -9.015625 L 2.015625 -9.015625 L 3.390625 -2.671875 L 3.53125 -2.671875 L 5.15625 -9.015625 L 6.671875 -9.015625 L 8.328125 -2.671875 L 8.46875 -2.671875 L 9.84375 -9.015625 L 11.5625 -9.015625 L 9.5 0 L 7.5 0 L 5.921875 -5.8125 L 5.796875 -5.8125 Z M 4.296875 0 "/></g></g></g><g fill="#0d6efd" fill-opacity="1"><g transform="translate(40.476731, 40.295123)"><g><path d="M 8.65625 0 L 6.78125 0 L 6.09375 -2.078125 L 2.640625 -2.078125 L 1.96875 0 L 0.140625 0 L 3.25 -9.015625 L 5.53125 -9.015625 Z M 4.28125 -7.125 L 3.125 -3.578125 L 5.609375 -3.578125 L 4.4375 -7.125 Z M 4.28125 -7.125 "/></g></g></g><g fill="#0d6efd" fill-opacity="1"><g transform="translate(49.262397, 40.295123)"><g><path d="M 4.375 0.125 C 3.625 0.125 2.972656 -0.046875 2.421875 -0.390625 C 1.878906 -0.734375 1.457031 -1.25 1.15625 -1.9375 C 0.851562 -2.632812 0.703125 -3.488281 0.703125 -4.5 C 0.703125 -5.53125 0.878906 -6.390625 1.234375 -7.078125 C 1.597656 -7.773438 2.097656 -8.289062 2.734375 -8.625 C 3.367188 -8.96875 4.101562 -9.140625 4.9375 -9.140625 C 5.800781 -9.140625 6.535156 -8.976562 7.140625 -8.65625 C 7.753906 -8.34375 8.1875 -7.867188 8.4375 -7.234375 L 7.125 -6.4375 L 6.984375 -6.453125 C 6.796875 -6.847656 6.535156 -7.140625 6.203125 -7.328125 C 5.867188 -7.515625 5.445312 -7.609375 4.9375 -7.609375 C 4.164062 -7.609375 3.570312 -7.363281 3.15625 -6.875 C 2.75 -6.382812 2.546875 -5.59375 2.546875 -4.5 C 2.546875 -3.414062 2.738281 -2.625 3.125 -2.125 C 3.507812 -1.632812 4.078125 -1.390625 4.828125 -1.390625 C 5.472656 -1.390625 5.945312 -1.535156 6.25 -1.828125 C 6.5625 -2.117188 6.71875 -2.554688 6.71875 -3.140625 L 6.71875 -3.53125 L 4.59375 -3.53125 L 4.59375 -4.96875 L 8.5 -4.96875 L 8.5 0 L 6.796875 0 L 6.796875 -1.203125 L 6.65625 -1.234375 C 6.476562 -0.796875 6.203125 -0.457031 5.828125 -0.21875 C 5.453125 0.0078125 4.96875 0.125 4.375 0.125 Z M 4.375 0.125 "/></g></g></g><g fill="#0d6efd" fill-opacity="1"><g transform="translate(58.664602, 40.295123)"><g><path d="M 4.375 0.125 C 3.625 0.125 2.972656 -0.046875 2.421875 -0.390625 C 1.878906 -0.734375 1.457031 -1.25 1.15625 -1.9375 C 0.851562 -2.632812 0.703125 -3.488281 0.703125 -4.5 C 0.703125 -5.53125 0.878906 -6.390625 1.234375 -7.078125 C 1.597656 -7.773438 2.097656 -8.289062 2.734375 -8.625 C 3.367188 -8.96875 4.101562 -9.140625 4.9375 -9.140625 C 5.800781 -9.140625 6.535156 -8.976562 7.140625 -8.65625 C 7.753906 -8.34375 8.1875 -7.867188 8.4375 -7.234375 L 7.125 -6.4375 L 6.984375 -6.453125 C 6.796875 -6.847656 6.535156 -7.140625 6.203125 -7.328125 C 5.867188 -7.515625 5.445312 -7.609375 4.9375 -7.609375 C 4.164062 -7.609375 3.570312 -7.363281 3.15625 -6.875 C 2.75 -6.382812 2.546875 -5.59375 2.546875 -4.5 C 2.546875 -3.414062 2.738281 -2.625 3.125 -2.125 C 3.507812 -1.632812 4.078125 -1.390625 4.828125 -1.390625 C 5.472656 -1.390625 5.945312 -1.535156 6.25 -1.828125 C 6.5625 -2.117188 6.71875 -2.554688 6.71875 -3.140625 L 6.71875 -3.53125 L 4.59375 -3.53125 L 4.59375 -4.96875 L 8.5 -4.96875 L 8.5 0 L 6.796875 0 L 6.796875 -1.203125 L 6.65625 -1.234375 C 6.476562 -0.796875 6.203125 -0.457031 5.828125 -0.21875 C 5.453125 0.0078125 4.96875 0.125 4.375 0.125 Z M 4.375 0.125 "/></g></g></g><g fill="#0d6efd" fill-opacity="1"><g transform="translate(68.066806, 40.295123)"><g><path d="M 2.953125 0 L 1.171875 0 L 1.171875 -9.015625 L 2.953125 -9.015625 Z M 2.953125 0 "/></g></g></g><g fill="#0d6efd" fill-opacity="1"><g transform="translate(72.197611, 40.295123)"><g><path d="M 2.890625 0 L 1.171875 0 L 1.171875 -9.015625 L 3.21875 -9.015625 L 6.828125 -3.203125 L 6.984375 -3.234375 L 6.984375 -9.015625 L 8.703125 -9.015625 L 8.703125 0 L 6.875 0 L 3.046875 -6.203125 L 2.890625 -6.171875 Z M 2.890625 0 "/></g></g></g><g fill="#0d6efd" fill-opacity="1"><g transform="translate(82.080715, 40.295123)"><g><path d="M 4.375 0.125 C 3.625 0.125 2.972656 -0.046875 2.421875 -0.390625 C 1.878906 -0.734375 1.457031 -1.25 1.15625 -1.9375 C 0.851562 -2.632812 0.703125 -3.488281 0.703125 -4.5 C 0.703125 -5.53125 0.878906 -6.390625 1.234375 -7.078125 C 1.597656 -7.773438 2.097656 -8.289062 2.734375 -8.625 C 3.367188 -8.96875 4.101562 -9.140625 4.9375 -9.140625 C 5.800781 -9.140625 6.535156 -8.976562 7.140625 -8.65625 C 7.753906 -8.34375 8.1875 -7.867188 8.4375 -7.234375 L 7.125 -6.4375 L 6.984375 -6.453125 C 6.796875 -6.847656 6.535156 -7.140625 6.203125 -7.328125 C 5.867188 -7.515625 5.445312 -7.609375 4.9375 -7.609375 C 4.164062 -7.609375 3.570312 -7.363281 3.15625 -6.875 C 2.75 -6.382812 2.546875 -5.59375 2.546875 -4.5 C 2.546875 -3.414062 2.738281 -2.625 3.125 -2.125 C 3.507812 -1.632812 4.078125 -1.390625 4.828125 -1.390625 C 5.472656 -1.390625 5.945312 -1.535156 6.25 -1.828125 C 6.5625 -2.117188 6.71875 -2.554688 6.71875 -3.140625 L 6.71875 -3.53125 L 4.59375 -3.53125 L 4.59375 -4.96875 L 8.5 -4.96875 L 8.5 0 L 6.796875 0 L 6.796875 -1.203125 L 6.65625 -1.234375 C 6.476562 -0.796875 6.203125 -0.457031 5.828125 -0.21875 C 5.453125 0.0078125 4.96875 0.125 4.375 0.125 Z M 4.375 0.125 "/></g></g></g><g fill="#0d6efd" fill-opacity="1"><g transform="translate(91.482919, 40.295123)"><g/></g></g><g fill="#0d6efd" fill-opacity="1"><g transform="translate(94.460798, 40.295123)"><g><path d="M 4.296875 0 L 2.3125 0 L 0.25 -9.015625 L 2.015625 -9.015625 L 3.390625 -2.671875 L 3.53125 -2.671875 L 5.15625 -9.015625 L 6.671875 -9.015625 L 8.328125 -2.671875 L 8.46875 -2.671875 L 9.84375 -9.015625 L 11.5625 -9.015625 L 9.5 0 L 7.5 0 L 5.921875 -5.8125 L 5.796875 -5.8125 Z M 4.296875 0 "/></g></g></g><g fill="#0d6efd" fill-opacity="1"><g transform="translate(106.261335, 40.295123)"><g><path d="M 6.984375 -5.625 L 6.984375 -9.015625 L 8.765625 -9.015625 L 8.765625 0 L 6.984375 0 L 6.984375 -4.109375 L 2.953125 -4.109375 L 2.953125 0 L 1.171875 0 L 1.171875 -9.015625 L 2.953125 -9.015625 L 2.953125 -5.625 Z M 6.984375 -5.625 "/></g></g></g><g fill="#0d6efd" fill-opacity="1"><g transform="translate(116.206087, 40.295123)"><g><path d="M 2.953125 -3.953125 L 2.953125 -1.484375 L 7.25 -1.484375 L 7.25 0 L 1.171875 0 L 1.171875 -9.015625 L 7.15625 -9.015625 L 7.15625 -7.515625 L 2.953125 -7.515625 L 2.953125 -5.40625 L 6.625 -5.40625 L 6.625 -3.953125 Z M 2.953125 -3.953125 "/></g></g></g><g fill="#0d6efd" fill-opacity="1"><g transform="translate(123.955965, 40.295123)"><g><path d="M 2.953125 -3.953125 L 2.953125 -1.484375 L 7.25 -1.484375 L 7.25 0 L 1.171875 0 L 1.171875 -9.015625 L 7.15625 -9.015625 L 7.15625 -7.515625 L 2.953125 -7.515625 L 2.953125 -5.40625 L 6.625 -5.40625 L 6.625 -3.953125 Z M 2.953125 -3.953125 "/></g></g></g><g fill="#0d6efd" fill-opacity="1"><g transform="translate(131.705843, 40.295123)"><g><path d="M 2.953125 -9.015625 L 2.953125 -1.484375 L 7 -1.484375 L 7 0 L 1.171875 0 L 1.171875 -9.015625 Z M 2.953125 -9.015625 "/></g></g></g><g fill="#0d6efd" fill-opacity="1"><g transform="translate(139.005653, 40.295123)"><g><path d="M 4 0.125 C 3.375 0.125 2.816406 0.0507812 2.328125 -0.09375 C 1.835938 -0.25 1.429688 -0.453125 1.109375 -0.703125 C 0.785156 -0.953125 0.535156 -1.226562 0.359375 -1.53125 L 1.34375 -2.734375 L 1.5 -2.734375 C 1.769531 -2.328125 2.113281 -2.003906 2.53125 -1.765625 C 2.945312 -1.523438 3.4375 -1.40625 4 -1.40625 C 4.46875 -1.40625 4.820312 -1.503906 5.0625 -1.703125 C 5.3125 -1.910156 5.4375 -2.191406 5.4375 -2.546875 C 5.4375 -2.753906 5.394531 -2.929688 5.3125 -3.078125 C 5.238281 -3.222656 5.109375 -3.347656 4.921875 -3.453125 C 4.742188 -3.554688 4.503906 -3.644531 4.203125 -3.71875 L 3.046875 -3.984375 C 2.234375 -4.171875 1.628906 -4.476562 1.234375 -4.90625 C 0.835938 -5.332031 0.640625 -5.890625 0.640625 -6.578125 C 0.640625 -7.085938 0.765625 -7.535156 1.015625 -7.921875 C 1.273438 -8.304688 1.644531 -8.601562 2.125 -8.8125 C 2.613281 -9.03125 3.195312 -9.140625 3.875 -9.140625 C 4.570312 -9.140625 5.164062 -9.046875 5.65625 -8.859375 C 6.15625 -8.679688 6.578125 -8.40625 6.921875 -8.03125 L 6.03125 -6.8125 L 5.875 -6.8125 C 5.625 -7.082031 5.332031 -7.285156 5 -7.421875 C 4.675781 -7.554688 4.300781 -7.625 3.875 -7.625 C 3.382812 -7.625 3.007812 -7.535156 2.75 -7.359375 C 2.5 -7.191406 2.375 -6.953125 2.375 -6.640625 C 2.375 -6.359375 2.460938 -6.132812 2.640625 -5.96875 C 2.828125 -5.800781 3.140625 -5.671875 3.578125 -5.578125 L 4.765625 -5.328125 C 5.640625 -5.140625 6.269531 -4.820312 6.65625 -4.375 C 7.050781 -3.9375 7.25 -3.363281 7.25 -2.65625 C 7.25 -2.09375 7.128906 -1.601562 6.890625 -1.1875 C 6.648438 -0.769531 6.285156 -0.445312 5.796875 -0.21875 C 5.304688 0.0078125 4.707031 0.125 4 0.125 Z M 4 0.125 "/></g></g></g><g fill="#000000" fill-opacity="1"><g transform="translate(46.238768, 47.936101)"><g><path d="M 0.859375 0 L 0.5 0 L 0.5 -3.296875 L 1.078125 -3.296875 L 2.078125 -0.5 L 2.125 -0.5 L 3.125 -3.296875 L 3.671875 -3.296875 L 3.671875 0 L 3.3125 0 L 3.3125 -2.6875 L 3.25 -2.703125 L 2.28125 0 L 1.890625 0 L 0.921875 -2.703125 L 0.859375 -2.6875 Z M 0.859375 0 "/></g></g></g><g fill="#000000" fill-opacity="1"><g transform="translate(51.350653, 47.936101)"><g><path d="M 1.8125 0.046875 C 1.519531 0.046875 1.265625 -0.015625 1.046875 -0.140625 C 0.828125 -0.265625 0.648438 -0.453125 0.515625 -0.703125 C 0.390625 -0.953125 0.328125 -1.269531 0.328125 -1.65625 C 0.328125 -2.03125 0.390625 -2.34375 0.515625 -2.59375 C 0.648438 -2.851562 0.828125 -3.039062 1.046875 -3.15625 C 1.265625 -3.28125 1.519531 -3.34375 1.8125 -3.34375 C 2.09375 -3.34375 2.34375 -3.28125 2.5625 -3.15625 C 2.789062 -3.039062 2.96875 -2.851562 3.09375 -2.59375 C 3.226562 -2.34375 3.296875 -2.03125 3.296875 -1.65625 C 3.296875 -1.269531 3.226562 -0.953125 3.09375 -0.703125 C 2.96875 -0.453125 2.789062 -0.265625 2.5625 -0.140625 C 2.34375 -0.015625 2.09375 0.046875 1.8125 0.046875 Z M 1.8125 -0.3125 C 2.15625 -0.3125 2.414062 -0.414062 2.59375 -0.625 C 2.78125 -0.84375 2.875 -1.1875 2.875 -1.65625 C 2.875 -2.113281 2.78125 -2.445312 2.59375 -2.65625 C 2.414062 -2.875 2.15625 -2.984375 1.8125 -2.984375 C 1.101562 -2.984375 0.75 -2.539062 0.75 -1.65625 C 0.75 -0.757812 1.101562 -0.3125 1.8125 -0.3125 Z M 1.8125 -0.3125 "/></g></g></g><g fill="#000000" fill-opacity="1"><g transform="translate(55.905511, 47.936101)"><g><path d="M 0.5 0 L 0.5 -3.296875 L 1.75 -3.296875 C 1.957031 -3.296875 2.128906 -3.265625 2.265625 -3.203125 C 2.410156 -3.140625 2.515625 -3.046875 2.578125 -2.921875 C 2.648438 -2.804688 2.6875 -2.664062 2.6875 -2.5 C 2.6875 -2.351562 2.648438 -2.222656 2.578125 -2.109375 C 2.503906 -1.992188 2.394531 -1.90625 2.25 -1.84375 L 2.25 -1.796875 C 2.46875 -1.742188 2.632812 -1.644531 2.75 -1.5 C 2.863281 -1.351562 2.921875 -1.171875 2.921875 -0.953125 C 2.921875 -0.648438 2.828125 -0.414062 2.640625 -0.25 C 2.460938 -0.0820312 2.195312 0 1.84375 0 Z M 1.734375 -1.921875 C 1.910156 -1.921875 2.050781 -1.96875 2.15625 -2.0625 C 2.257812 -2.15625 2.3125 -2.285156 2.3125 -2.453125 C 2.3125 -2.628906 2.257812 -2.757812 2.15625 -2.84375 C 2.0625 -2.9375 1.921875 -2.984375 1.734375 -2.984375 L 0.890625 -2.984375 L 0.890625 -1.921875 Z M 1.8125 -0.328125 C 2.28125 -0.328125 2.515625 -0.535156 2.515625 -0.953125 C 2.515625 -1.378906 2.28125 -1.59375 1.8125 -1.59375 L 0.890625 -1.59375 L 0.890625 -0.328125 Z M 1.8125 -0.328125 "/></g></g></g><g fill="#000000" fill-opacity="1"><g transform="translate(60.016101, 47.936101)"><g><path d="M 0.890625 0 L 0.5 0 L 0.5 -3.296875 L 0.890625 -3.296875 Z M 0.890625 0 "/></g></g></g><g fill="#000000" fill-opacity="1"><g transform="translate(62.3406, 47.936101)"><g><path d="M 0.890625 -3.296875 L 0.890625 -0.328125 L 2.484375 -0.328125 L 2.484375 0 L 0.5 0 L 0.5 -3.296875 Z M 0.890625 -3.296875 "/></g></g></g><g fill="#000000" fill-opacity="1"><g transform="translate(65.89191, 47.936101)"><g><path d="M 0.890625 -1.5625 L 0.890625 -0.328125 L 2.5625 -0.328125 L 2.5625 0 L 0.5 0 L 0.5 -3.296875 L 2.53125 -3.296875 L 2.53125 -2.984375 L 0.890625 -2.984375 L 0.890625 -1.875 L 2.34375 -1.875 L 2.34375 -1.5625 Z M 0.890625 -1.5625 "/></g></g></g><g fill="#000000" fill-opacity="1"><g transform="translate(69.614612, 47.936101)"><g/></g></g><g fill="#000000" fill-opacity="1"><g transform="translate(71.684278, 47.936101)"><g><path d="M 1.5625 -3.296875 C 1.894531 -3.296875 2.179688 -3.234375 2.421875 -3.109375 C 2.660156 -2.992188 2.847656 -2.8125 2.984375 -2.5625 C 3.117188 -2.320312 3.1875 -2.019531 3.1875 -1.65625 C 3.1875 -1.28125 3.117188 -0.96875 2.984375 -0.71875 C 2.847656 -0.476562 2.660156 -0.296875 2.421875 -0.171875 C 2.179688 -0.0546875 1.894531 0 1.5625 0 L 0.5 0 L 0.5 -3.296875 Z M 1.53125 -0.328125 C 1.800781 -0.328125 2.023438 -0.367188 2.203125 -0.453125 C 2.390625 -0.546875 2.53125 -0.6875 2.625 -0.875 C 2.71875 -1.070312 2.765625 -1.332031 2.765625 -1.65625 C 2.765625 -1.976562 2.71875 -2.234375 2.625 -2.421875 C 2.53125 -2.617188 2.390625 -2.757812 2.203125 -2.84375 C 2.023438 -2.925781 1.800781 -2.96875 1.53125 -2.96875 L 0.890625 -2.96875 L 0.890625 -0.328125 Z M 1.53125 -0.328125 "/></g></g></g><g fill="#000000" fill-opacity="1"><g transform="translate(76.126376, 47.936101)"><g><path d="M 1.8125 0.046875 C 1.519531 0.046875 1.265625 -0.015625 1.046875 -0.140625 C 0.828125 -0.265625 0.648438 -0.453125 0.515625 -0.703125 C 0.390625 -0.953125 0.328125 -1.269531 0.328125 -1.65625 C 0.328125 -2.03125 0.390625 -2.34375 0.515625 -2.59375 C 0.648438 -2.851562 0.828125 -3.039062 1.046875 -3.15625 C 1.265625 -3.28125 1.519531 -3.34375 1.8125 -3.34375 C 2.09375 -3.34375 2.34375 -3.28125 2.5625 -3.15625 C 2.789062 -3.039062 2.96875 -2.851562 3.09375 -2.59375 C 3.226562 -2.34375 3.296875 -2.03125 3.296875 -1.65625 C 3.296875 -1.269531 3.226562 -0.953125 3.09375 -0.703125 C 2.96875 -0.453125 2.789062 -0.265625 2.5625 -0.140625 C 2.34375 -0.015625 2.09375 0.046875 1.8125 0.046875 Z M 1.8125 -0.3125 C 2.15625 -0.3125 2.414062 -0.414062 2.59375 -0.625 C 2.78125 -0.84375 2.875 -1.1875 2.875 -1.65625 C 2.875 -2.113281 2.78125 -2.445312 2.59375 -2.65625 C 2.414062 -2.875 2.15625 -2.984375 1.8125 -2.984375 C 1.101562 -2.984375 0.75 -2.539062 0.75 -1.65625 C 0.75 -0.757812 1.101562 -0.3125 1.8125 -0.3125 Z M 1.8125 -0.3125 "/></g></g></g><g fill="#000000" fill-opacity="1"><g transform="translate(80.681234, 47.936101)"><g><path d="M 1.734375 0.046875 C 1.460938 0.046875 1.21875 -0.015625 1 -0.140625 C 0.789062 -0.265625 0.625 -0.453125 0.5 -0.703125 C 0.382812 -0.960938 0.328125 -1.28125 0.328125 -1.65625 C 0.328125 -2.019531 0.390625 -2.328125 0.515625 -2.578125 C 0.648438 -2.835938 0.828125 -3.03125 1.046875 -3.15625 C 1.273438 -3.28125 1.535156 -3.34375 1.828125 -3.34375 C 2.148438 -3.34375 2.410156 -3.285156 2.609375 -3.171875 C 2.816406 -3.066406 2.960938 -2.898438 3.046875 -2.671875 L 2.78125 -2.515625 L 2.734375 -2.515625 C 2.648438 -2.691406 2.535156 -2.816406 2.390625 -2.890625 C 2.242188 -2.960938 2.054688 -3 1.828125 -3 C 1.109375 -3 0.75 -2.550781 0.75 -1.65625 C 0.75 -1.1875 0.835938 -0.84375 1.015625 -0.625 C 1.203125 -0.40625 1.457031 -0.296875 1.78125 -0.296875 C 2.082031 -0.296875 2.304688 -0.363281 2.453125 -0.5 C 2.609375 -0.644531 2.6875 -0.863281 2.6875 -1.15625 L 2.6875 -1.453125 L 1.75 -1.453125 L 1.75 -1.765625 L 3.0625 -1.765625 L 3.0625 0 L 2.703125 0 L 2.703125 -0.4375 L 2.65625 -0.453125 C 2.570312 -0.285156 2.453125 -0.160156 2.296875 -0.078125 C 2.140625 0.00390625 1.953125 0.046875 1.734375 0.046875 Z M 1.734375 0.046875 "/></g></g></g><g fill="#000000" fill-opacity="1"><g transform="translate(85.046657, 47.936101)"><g/></g></g><g fill="#000000" fill-opacity="1"><g transform="translate(87.116321, 47.936101)"><g><path d="M 2.4375 -3.296875 L 2.4375 -2.984375 L 0.890625 -2.984375 L 0.890625 -1.78125 L 2.28125 -1.78125 L 2.28125 -1.453125 L 0.890625 -1.453125 L 0.890625 0 L 0.5 0 L 0.5 -3.296875 Z M 2.4375 -3.296875 "/></g></g></g><g fill="#000000" fill-opacity="1"><g transform="translate(90.667629, 47.936101)"><g><path d="M 1.8125 0.046875 C 1.519531 0.046875 1.265625 -0.015625 1.046875 -0.140625 C 0.828125 -0.265625 0.648438 -0.453125 0.515625 -0.703125 C 0.390625 -0.953125 0.328125 -1.269531 0.328125 -1.65625 C 0.328125 -2.03125 0.390625 -2.34375 0.515625 -2.59375 C 0.648438 -2.851562 0.828125 -3.039062 1.046875 -3.15625 C 1.265625 -3.28125 1.519531 -3.34375 1.8125 -3.34375 C 2.09375 -3.34375 2.34375 -3.28125 2.5625 -3.15625 C 2.789062 -3.039062 2.96875 -2.851562 3.09375 -2.59375 C 3.226562 -2.34375 3.296875 -2.03125 3.296875 -1.65625 C 3.296875 -1.269531 3.226562 -0.953125 3.09375 -0.703125 C 2.96875 -0.453125 2.789062 -0.265625 2.5625 -0.140625 C 2.34375 -0.015625 2.09375 0.046875 1.8125 0.046875 Z M 1.8125 -0.3125 C 2.15625 -0.3125 2.414062 -0.414062 2.59375 -0.625 C 2.78125 -0.84375 2.875 -1.1875 2.875 -1.65625 C 2.875 -2.113281 2.78125 -2.445312 2.59375 -2.65625 C 2.414062 -2.875 2.15625 -2.984375 1.8125 -2.984375 C 1.101562 -2.984375 0.75 -2.539062 0.75 -1.65625 C 0.75 -0.757812 1.101562 -0.3125 1.8125 -0.3125 Z M 1.8125 -0.3125 "/></g></g></g><g fill="#000000" fill-opacity="1"><g transform="translate(95.222486, 47.936101)"><g><path d="M 1.8125 0.046875 C 1.519531 0.046875 1.265625 -0.015625 1.046875 -0.140625 C 0.828125 -0.265625 0.648438 -0.453125 0.515625 -0.703125 C 0.390625 -0.953125 0.328125 -1.269531 0.328125 -1.65625 C 0.328125 -2.03125 0.390625 -2.34375 0.515625 -2.59375 C 0.648438 -2.851562 0.828125 -3.039062 1.046875 -3.15625 C 1.265625 -3.28125 1.519531 -3.34375 1.8125 -3.34375 C 2.09375 -3.34375 2.34375 -3.28125 2.5625 -3.15625 C 2.789062 -3.039062 2.96875 -2.851562 3.09375 -2.59375 C 3.226562 -2.34375 3.296875 -2.03125 3.296875 -1.65625 C 3.296875 -1.269531 3.226562 -0.953125 3.09375 -0.703125 C 2.96875 -0.453125 2.789062 -0.265625 2.5625 -0.140625 C 2.34375 -0.015625 2.09375 0.046875 1.8125 0.046875 Z M 1.8125 -0.3125 C 2.15625 -0.3125 2.414062 -0.414062 2.59375 -0.625 C 2.78125 -0.84375 2.875 -1.1875 2.875 -1.65625 C 2.875 -2.113281 2.78125 -2.445312 2.59375 -2.65625 C 2.414062 -2.875 2.15625 -2.984375 1.8125 -2.984375 C 1.101562 -2.984375 0.75 -2.539062 0.75 -1.65625 C 0.75 -0.757812 1.101562 -0.3125 1.8125 -0.3125 Z M 1.8125 -0.3125 "/></g></g></g><g fill="#000000" fill-opacity="1"><g transform="translate(99.777346, 47.936101)"><g><path d="M 1.5625 -3.296875 C 1.894531 -3.296875 2.179688 -3.234375 2.421875 -3.109375 C 2.660156 -2.992188 2.847656 -2.8125 2.984375 -2.5625 C 3.117188 -2.320312 3.1875 -2.019531 3.1875 -1.65625 C 3.1875 -1.28125 3.117188 -0.96875 2.984375 -0.71875 C 2.847656 -0.476562 2.660156 -0.296875 2.421875 -0.171875 C 2.179688 -0.0546875 1.894531 0 1.5625 0 L 0.5 0 L 0.5 -3.296875 Z M 1.53125 -0.328125 C 1.800781 -0.328125 2.023438 -0.367188 2.203125 -0.453125 C 2.390625 -0.546875 2.53125 -0.6875 2.625 -0.875 C 2.71875 -1.070312 2.765625 -1.332031 2.765625 -1.65625 C 2.765625 -1.976562 2.71875 -2.234375 2.625 -2.421875 C 2.53125 -2.617188 2.390625 -2.757812 2.203125 -2.84375 C 2.023438 -2.925781 1.800781 -2.96875 1.53125 -2.96875 L 0.890625 -2.96875 L 0.890625 -0.328125 Z M 1.53125 -0.328125 "/></g></g></g><g fill="#000000" fill-opacity="1"><g transform="translate(104.219448, 47.936101)"><g/></g></g><g fill="#000000" fill-opacity="1"><g transform="translate(106.289115, 47.936101)"><g><path d="M 1.6875 -3.296875 C 1.90625 -3.296875 2.097656 -3.253906 2.265625 -3.171875 C 2.429688 -3.097656 2.554688 -2.984375 2.640625 -2.828125 C 2.722656 -2.679688 2.765625 -2.503906 2.765625 -2.296875 C 2.765625 -2.085938 2.722656 -1.90625 2.640625 -1.75 C 2.554688 -1.601562 2.429688 -1.488281 2.265625 -1.40625 C 2.097656 -1.332031 1.90625 -1.296875 1.6875 -1.296875 L 0.890625 -1.296875 L 0.890625 0 L 0.5 0 L 0.5 -3.296875 Z M 1.671875 -1.625 C 2.128906 -1.625 2.359375 -1.847656 2.359375 -2.296875 C 2.359375 -2.742188 2.128906 -2.96875 1.671875 -2.96875 L 0.890625 -2.96875 L 0.890625 -1.625 Z M 1.671875 -1.625 "/></g></g></g><g fill="#000000" fill-opacity="1"><g transform="translate(110.232825, 47.936101)"><g><path d="M 2.96875 0 L 2.5625 0 L 2.25 -0.90625 L 0.84375 -0.90625 L 0.53125 0 L 0.125 0 L 1.28125 -3.296875 L 1.8125 -3.296875 Z M 1.515625 -2.90625 L 0.953125 -1.234375 L 2.140625 -1.234375 L 1.578125 -2.90625 Z M 1.515625 -2.90625 "/></g></g></g><g fill="#000000" fill-opacity="1"><g transform="translate(114.268997, 47.936101)"><g><path d="M 0.875 0 L 0.5 0 L 0.5 -3.296875 L 0.96875 -3.296875 L 2.578125 -0.78125 L 2.640625 -0.78125 L 2.640625 -3.296875 L 3.015625 -3.296875 L 3.015625 0 L 2.609375 0 L 0.9375 -2.703125 L 0.875 -2.6875 Z M 0.875 0 "/></g></g></g><g fill="#000000" fill-opacity="1"><g transform="translate(118.722374, 47.936101)"><g><path d="M 2.578125 -3.296875 L 2.578125 -2.96875 L 1.546875 -2.96875 L 1.546875 0 L 1.15625 0 L 1.15625 -2.96875 L 0.125 -2.96875 L 0.125 -3.296875 Z M 2.578125 -3.296875 "/></g></g></g><g fill="#000000" fill-opacity="1"><g transform="translate(122.352616, 47.936101)"><g><path d="M 0.5 0 L 0.5 -3.296875 L 1.703125 -3.296875 C 1.921875 -3.296875 2.101562 -3.257812 2.25 -3.1875 C 2.40625 -3.113281 2.519531 -3.007812 2.59375 -2.875 C 2.664062 -2.75 2.703125 -2.59375 2.703125 -2.40625 C 2.703125 -2.207031 2.648438 -2.039062 2.546875 -1.90625 C 2.453125 -1.769531 2.296875 -1.671875 2.078125 -1.609375 L 2.078125 -1.5625 C 2.179688 -1.519531 2.265625 -1.453125 2.328125 -1.359375 C 2.398438 -1.265625 2.46875 -1.128906 2.53125 -0.953125 L 2.828125 0 L 2.4375 0 L 2.09375 -1.015625 C 2.0625 -1.128906 2.019531 -1.21875 1.96875 -1.28125 C 1.914062 -1.351562 1.847656 -1.40625 1.765625 -1.4375 C 1.691406 -1.46875 1.59375 -1.484375 1.46875 -1.484375 L 0.890625 -1.484375 L 0.890625 0 Z M 1.6875 -1.8125 C 1.894531 -1.8125 2.046875 -1.859375 2.140625 -1.953125 C 2.242188 -2.046875 2.296875 -2.191406 2.296875 -2.390625 C 2.296875 -2.585938 2.242188 -2.734375 2.140625 -2.828125 C 2.046875 -2.921875 1.894531 -2.96875 1.6875 -2.96875 L 0.890625 -2.96875 L 0.890625 -1.8125 Z M 1.6875 -1.8125 "/></g></g></g><g fill="#000000" fill-opacity="1"><g transform="translate(126.343685, 47.936101)"><g><path d="M 1.609375 0 L 1.21875 0 L 1.21875 -1.296875 L 0.078125 -3.296875 L 0.515625 -3.296875 L 1.40625 -1.75 L 1.453125 -1.75 L 2.34375 -3.296875 L 2.75 -3.296875 L 1.609375 -1.296875 Z M 1.609375 0 "/></g></g></g></svg>